<?xml version="1.0" standalone="no"?>
<!DOCTYPE svg PUBLIC "-//W3C//DTD SVG 20010904//EN"
 "http://www.w3.org/TR/2001/REC-SVG-20010904/DTD/svg10.dtd">
<svg version="1.0" xmlns="http://www.w3.org/2000/svg"
 width="512.000000pt" height="512.000000pt" viewBox="0 0 512.000000 512.000000"
 preserveAspectRatio="xMidYMid meet">
<metadata>
Created by potrace 1.11, written by Peter Selinger 2001-2013
</metadata>
<g transform="translate(0.000000,512.000000) scale(0.100000,-0.100000)"
fill="#000000" stroke="none">
<path d="M232 3966 c-11 -18 -9 -2596 3 -2605 5 -4 30 -7 55 -7 l45 1 0 1310
0 1309 -48 2 c-26 1 -51 -4 -55 -10z"/>
<path d="M462 3961 c-10 -20 -9 -2582 1 -2597 5 -9 56 -12 98 -5 7 1 7 2611 0
2612 -53 9 -93 5 -99 -10z"/>
<path d="M692 3972 c-9 -3 -12 -315 -12 -1302 0 -1227 1 -1300 18 -1308 9 -5
31 -8 47 -7 17 2 35 3 41 4 9 1 12 337 12 1306 0 718 -3 1305 -6 1306 -27 4
-91 4 -100 1z"/>
<path d="M922 3971 c-15 -9 -13 -2609 2 -2613 9 -4 990 -3 1007 1 9 1 6 98 -3
106 -3 4 -208 7 -455 8 l-448 2 -2 47 c-1 26 2 50 6 52 4 3 209 6 454 7 246 1
448 4 448 8 8 34 5 100 -5 104 -6 2 -204 3 -441 3 -236 -1 -437 2 -446 6 -17
8 -24 74 -10 96 7 11 89 14 442 14 239 -1 442 1 451 4 13 4 17 15 16 42 -2 73
32 68 -462 67 -290 0 -447 3 -448 10 -1 6 -2 463 -3 1018 -1 554 -5 1010 -9
1014 -9 9 -81 12 -94 4z"/>
<path d="M2197 3965 c-18 -18 -17 -2593 1 -2604 7 -4 32 -7 55 -7 l42 2 5
1186 c3 652 8 1190 13 1194 4 4 7 2 7 -5 0 -10 78 -162 220 -426 20 -38 63
-119 95 -180 73 -139 146 -278 250 -475 77 -145 114 -216 252 -480 31 -58 61
-111 68 -119 12 -12 111 -18 122 -7 4 3 -53 116 -147 291 -21 39 -70 133 -111
210 -40 77 -90 172 -111 210 -20 39 -58 111 -83 160 -26 50 -68 128 -92 175
-98 183 -123 230 -193 365 -40 77 -81 154 -90 170 -10 17 -52 98 -95 180 -43
83 -82 154 -87 160 -12 14 -108 14 -121 0z"/>
<path d="M2460 3970 c-10 -6 -11 -12 -3 -22 6 -7 43 -76 83 -153 40 -77 85
-162 100 -190 15 -27 67 -126 115 -220 48 -93 95 -183 105 -200 10 -16 46 -84
80 -150 35 -66 84 -160 110 -210 26 -49 78 -148 115 -220 37 -71 71 -134 75
-140 6 -8 156 -296 208 -397 13 -27 21 -30 77 -30 72 0 74 -13 -29 186 -52
101 -106 203 -119 227 -13 24 -57 107 -97 184 -40 77 -89 172 -110 210 -56
104 -119 224 -195 370 -37 72 -87 166 -110 210 -23 44 -73 139 -111 210 -89
169 -156 296 -170 318 -12 20 -100 32 -124 17z"/>
<path d="M2715 3970 c-3 -5 12 -42 33 -82 22 -40 90 -170 152 -288 110 -210
160 -305 259 -492 81 -156 155 -297 221 -423 34 -66 79 -151 100 -190 78 -147
151 -285 191 -364 23 -45 47 -84 53 -87 27 -9 108 -9 121 0 13 11 34 49 140
251 32 61 77 146 100 190 23 44 66 125 95 180 29 55 70 132 90 170 20 39 70
133 110 210 40 77 80 154 90 170 10 17 48 89 85 160 118 227 168 319 185 342
16 20 17 -56 16 -1168 -1 -786 2 -1189 9 -1190 59 -5 97 -4 102 5 9 13 8 2594
-1 2603 -10 11 -110 11 -123 1 -6 -5 -20 -26 -31 -46 -52 -101 -149 -285 -182
-347 -20 -38 -70 -133 -110 -210 -40 -77 -90 -171 -110 -210 -21 -38 -64 -119
-95 -180 -32 -60 -77 -146 -100 -190 -23 -44 -75 -143 -115 -220 -40 -77 -102
-194 -137 -259 -35 -66 -63 -124 -63 -130 0 -24 -41 36 -95 139 -32 61 -77
146 -100 190 -23 44 -73 139 -110 210 -38 72 -76 144 -85 160 -9 17 -56 107
-105 200 -48 94 -91 175 -95 180 -4 6 -44 82 -90 170 -45 88 -95 183 -110 210
-15 28 -60 113 -100 190 -40 77 -74 142 -76 144 -7 8 -114 9 -119 1z"/>
<path d="M4227 3966 c-8 -6 -42 -65 -77 -131 -35 -66 -77 -147 -95 -180 -18
-33 -56 -105 -85 -160 -98 -186 -142 -270 -175 -330 -18 -33 -58 -109 -90
-169 -31 -61 -75 -144 -98 -185 -23 -42 -41 -77 -39 -79 1 -1 14 -25 28 -52
15 -28 32 -49 38 -47 6 2 36 50 66 108 31 57 84 158 119 224 77 145 129 242
189 355 24 47 64 121 87 165 23 44 66 125 95 180 29 55 71 134 93 175 22 41
46 86 53 100 7 13 11 26 8 29 -10 10 -104 8 -117 -3z"/>
<path d="M4485 3965 c-7 -5 -43 -68 -80 -140 -37 -71 -84 -161 -105 -200 -20
-38 -65 -124 -100 -190 -35 -66 -83 -157 -107 -203 -23 -45 -71 -135 -104
-200 -34 -64 -76 -144 -94 -177 -48 -89 -145 -274 -171 -326 l-23 -46 27 -51
c15 -29 32 -52 37 -52 6 0 35 49 65 108 30 59 80 154 111 212 31 58 81 152
111 210 31 58 77 146 103 195 26 50 74 142 107 205 33 63 73 138 88 165 15 28
65 122 110 210 45 88 98 188 117 223 19 34 31 63 26 63 -40 6 -107 3 -118 -6z"/>
<path d="M4624 3358 c-5 -7 -28 -51 -53 -98 l-44 -85 -1 -903 c-1 -1002 -7
-920 66 -917 21 1 40 4 44 7 7 8 8 1997 1 2004 -3 3 -9 -1 -13 -8z"/>
<path d="M2419 3329 c-1 -19 -2 -468 -2 -997 -1 -634 1 -966 8 -970 17 -11 85
-9 94 2 5 6 8 416 7 911 l-1 900 -49 90 c-26 50 -50 92 -52 94 -2 2 -4 -11 -5
-30z"/>
<path d="M4399 2922 c-9 -10 -35 -54 -57 -97 l-42 -77 0 -694 c0 -548 3 -694
13 -695 61 -5 89 -4 95 5 5 8 13 1576 8 1576 -1 0 -9 -8 -17 -18z"/>
<path d="M2642 2140 c0 -667 2 -780 14 -781 45 -4 80 -5 91 -1 8 3 11 176 10
695 l-2 692 -50 88 c-27 48 -53 87 -56 87 -4 0 -7 -351 -7 -780z"/>
<path d="M4156 2468 c-7 -13 -28 -50 -47 -83 l-33 -60 -1 -482 c-1 -266 1
-483 4 -484 40 -7 93 -4 99 5 9 15 10 1126 0 1126 -4 0 -14 -10 -22 -22z"/>
<path d="M2872 1921 c0 -421 2 -560 11 -563 10 -4 50 -3 90 1 9 1 12 102 11
473 l-1 473 -46 85 c-25 46 -50 86 -55 88 -6 2 -10 -199 -10 -557z"/>
</g>
</svg>
